<svg width="32" height="32" viewBox="0 0 32 32" fill="none" xmlns="http://www.w3.org/2000/svg">
<path d="M14.5 20.5C14.5 19.9477 14.9477 19.5 15.5 19.5H16.5C17.0523 19.5 17.5 19.9477 17.5 20.5V31C17.5 31.5523 17.0523 32 16.5 32H15.5C14.9477 32 14.5 31.5523 14.5 31V20.5Z" fill="#845832"/>
<path d="M5 0C4.44772 0 4 0.447715 4 1C4 1.55228 4.44772 2 5 2C6.65685 2 8 3.34315 8 5V21C8 23.4721 10.8223 24.8833 12.8 23.4L14.2 22.35C15.2667 21.55 16.7333 21.55 17.8 22.35L19.2 23.4C21.1777 24.8833 24 23.4721 24 21V5C24 3.34315 25.3431 2 27 2C27.5523 2 28 1.55228 28 1C28 0.447715 27.5523 0 27 0H5Z" fill="black"/>
<path d="M10 3.5C10 2.67157 10.6716 2 11.5 2H20.5C21.3284 2 22 2.67157 22 3.5V20.1648C22 21.3693 20.6519 22.0825 19.6561 21.4048L16.8439 19.491C16.3347 19.1444 15.6653 19.1444 15.1561 19.491L12.3439 21.4048C11.3481 22.0825 10 21.3693 10 20.1648V3.5Z" fill="#FFD83D"/>
</svg>
